<svg id="Capa_1" enable-background="new 0 0 512 512" height="512" viewBox="0 0 512 512" width="512" xmlns="http://www.w3.org/2000/svg" xmlns:xlink="http://www.w3.org/1999/xlink"><linearGradient id="SVGID_1_" gradientUnits="userSpaceOnUse" x1="256" x2="256" y1="512" y2="0"><stop offset="0" stop-color="#ffbef9"/><stop offset="1" stop-color="#fff1ff"/></linearGradient><linearGradient id="SVGID_2_" gradientUnits="userSpaceOnUse" x1="256" x2="256" y1="105" y2="407"><stop offset="0" stop-color="#a93aff"/><stop offset="1" stop-color="#ff81ff"/></linearGradient><g><g><circle cx="256" cy="256" fill="url(#SVGID_1_)" r="256"/></g><g><g><path d="m256 318.044h-35.529c-4.91 0-8.882 3.979-8.882 8.896v71.165c0 4.917 3.973 8.896 8.882 8.896h35.529c4.91 0 8.882-3.979 8.882-8.896v-71.165c0-4.917-3.972-8.896-8.882-8.896zm71.059-53.374h-35.529c-4.91 0-8.882 3.979-8.882 8.896v124.538c0 4.917 3.973 8.896 8.882 8.896h35.529c4.91 0 8.882-3.979 8.882-8.896v-124.538c0-4.917-3.973-8.896-8.882-8.896zm71.059-53.373h-35.529c-4.91 0-8.882 3.979-8.882 8.896v177.912c0 4.917 3.973 8.896 8.882 8.896h35.529c4.91 0 8.882-3.979 8.882-8.896v-177.913c0-4.917-3.973-8.895-8.882-8.895zm-186.53-106.297v89.035l88.677 5.475c-1.458-49.631-39.906-90.082-88.677-94.51zm-9.429 106.279c-4.684-.287-8.336-4.178-8.336-8.878v-97.401c-49.722 4.515-88.823 46.448-88.823 97.401 0 53.956 43.831 97.852 97.706 97.852 48.816 0 89.267-36.079 96.456-82.986zm-17.218 142.347h-35.529c-4.91 0-8.882 3.979-8.882 8.896v35.582c0 4.917 3.973 8.896 8.882 8.896h35.529c4.91 0 8.882-3.979 8.882-8.896v-35.582c.001-4.917-3.972-8.896-8.882-8.896z" fill="url(#SVGID_2_)"/></g></g></g></svg>