<svg id="Capa_1" enable-background="new 0 0 191.132 191.132" height="512" viewBox="0 0 191.132 191.132" width="512" xmlns="http://www.w3.org/2000/svg"><g><g><path d="m133.456 0h-102.302c-6.114 0-11.069 4.955-11.069 11.069v168.993c0 6.114 4.955 11.069 11.069 11.069h128.823c6.114 0 11.069-4.955 11.069-11.069v-142.472z" fill="#e1e6e9"/><path d="m144.525 37.59h26.521l-37.565-37.565v26.496c0 6.104 4.941 11.055 11.044 11.069z" fill="#ebf0f3"/><g fill="#3a556a"><path d="m42.599 60.73h5.635v1.427h-5.635z"/><path d="m42.599 72.15h5.635v1.427h-5.635z"/><path d="m42.599 83.595h5.635v1.427h-5.635z"/><path d="m42.599 95.015h5.635v1.427h-5.635z"/><path d="m42.599 106.46h5.635v1.427h-5.635z"/><path d="m42.573 117.904h5.635v1.427h-5.635z"/><path d="m42.573 129.349h5.635v1.427h-5.635z"/><path d="m42.573 140.77h5.635v1.427h-5.635z"/><path d="m42.573 152.215h5.635v1.427h-5.635z"/></g><path d="m52.29 60.73h96.267v1.427h-96.267z" fill="#d5d6db"/><path d="m52.29 72.15h96.267v1.427h-96.267z" fill="#d5d6db"/><path d="m52.29 83.595h96.267v1.427h-96.267z" fill="#d5d6db"/><path d="m52.29 95.015h96.267v1.427h-96.267z" fill="#d5d6db"/><path d="m52.29 106.46h96.267v1.427h-96.267z" fill="#d5d6db"/><path d="m51.865 117.904h96.267v1.427h-96.267z" fill="#d5d6db"/><path d="m51.865 129.349h96.267v1.427h-96.267z" fill="#d5d6db"/><path d="m51.865 140.77h96.267v1.427h-96.267z" fill="#d5d6db"/><path d="m51.865 152.215h96.267v1.427h-96.267z" fill="#d5d6db"/><path d="m56.698 149.334-1.803-1.453 23.189-29.125 27.649 5.158 29.602-22.112 1.377 1.852-30.403 22.716-27.273-5.084z" fill="#e56353"/><path d="m56.872 134.033-2.177-.777 13.673-37.89 30.128-3.106 4.558-19.509 29.876-13.072.926 2.104-28.825 12.621-4.657 19.984-30.329 3.131z" fill="#27a2db"/><path d="m104.58 67.217c-3.527-.014-6.398 2.834-6.411 6.361-.014 3.527 2.834 6.398 6.361 6.411 3.527.014 6.398-2.834 6.411-6.361 0-.017 0-.033 0-.05.001-3.513-2.847-6.361-6.361-6.361z" fill="#3a556a"/><path d="m98.921 86.775c-3.527-.014-6.397 2.835-6.411 6.362s2.835 6.397 6.362 6.411 6.397-2.835 6.411-6.362c0-.042 0-.083-.001-.125-.055-3.478-2.882-6.272-6.361-6.286z" fill="#3a556a"/><path d="m69.144 90.082c-3.513.014-6.349 2.873-6.335 6.386s2.873 6.349 6.386 6.335c3.503-.014 6.335-2.858 6.335-6.361-.013-3.516-2.869-6.36-6.386-6.36z" fill="#3a556a"/><path d="m78.561 114.549c-3.513 0-6.361 2.848-6.361 6.361s2.848 6.361 6.361 6.361 6.361-2.848 6.361-6.361-2.848-6.361-6.361-6.361z" fill="#3a556a"/><path d="m78.561 117.229c-2.034-.014-3.693 1.623-3.707 3.656-.014 2.034 1.623 3.693 3.656 3.707 2.034.014 3.693-1.623 3.707-3.656 0-.009 0-.017 0-.025 0-2.025-1.633-3.668-3.656-3.682z" fill="#e56353"/><path d="m105.809 119.281c-3.527-.014-6.397 2.834-6.411 6.361s2.834 6.397 6.361 6.411 6.397-2.834 6.411-6.361c0-.025 0-.05 0-.075-.029-3.497-2.864-6.322-6.361-6.336z" fill="#3a556a"/><path d="m136.01 96.342c-3.527 0-6.386 2.859-6.386 6.386s2.859 6.386 6.386 6.386 6.386-2.859 6.386-6.386-2.859-6.386-6.386-6.386z" fill="#3a556a"/><path d="m132.204 55.07c-3.527-.014-6.398 2.834-6.411 6.361-.014 3.527 2.834 6.398 6.361 6.411 3.527.014 6.398-2.834 6.411-6.361 0-.017 0-.033 0-.05-.014-3.507-2.853-6.347-6.361-6.361z" fill="#3a556a"/><path d="m105.809 121.886c-2.034 0-3.681 1.649-3.681 3.681 0 2.034 1.649 3.681 3.681 3.681 2.013 0 3.653-1.618 3.681-3.631.028-2.032-1.598-3.703-3.631-3.731-.017.001-.034 0-.05 0z" fill="#e56353"/><path d="m136.01 99.148c-2.026.167-3.533 1.946-3.365 3.972.148 1.794 1.572 3.217 3.365 3.365 2.026.167 3.805-1.339 3.972-3.365.168-2.026-1.339-3.805-3.365-3.972-.202-.018-.405-.018-.607 0z" fill="#e56353"/><circle cx="132.204" cy="61.431" fill="#27a2db" r="3.681"/><path d="m104.58 69.921c-2.034 0-3.681 1.649-3.681 3.681 0 2.034 1.649 3.681 3.681 3.681 2.034 0 3.681-1.649 3.681-3.681 0-.009 0-.017 0-.025 0-2.02-1.637-3.657-3.656-3.657-.007.001-.016.001-.025.001z" fill="#27a2db"/><circle cx="98.921" cy="93.137" fill="#27a2db" r="3.681"/><circle cx="69.144" cy="96.442" fill="#27a2db" r="3.681"/><path d="m148.557 160.303h-98.22v-102.628h2.078v100.55h96.142z" fill="#3a556a"/></g></g></svg>