<?xml version="1.0"?>
<svg xmlns="http://www.w3.org/2000/svg" xmlns:xlink="http://www.w3.org/1999/xlink" xmlns:svgjs="http://svgjs.com/svgjs" version="1.1" width="512" height="512" x="0" y="0" viewBox="0 0 512.091 512.091" style="enable-background:new 0 0 512 512" xml:space="preserve" class=""><g><g xmlns="http://www.w3.org/2000/svg" id="Chart"><path d="m60.045 452.091c0-6.464 0-459.454 0-452h-60v30h30v62h-30v30h30v60h-30v30h30v60h-30v30h30v60h-30v30h30v60h-30v30h30v30h30v-30h60v30h30v-30h60v30h30v-30h60v30h30v-30h60v30h30v-30h62v30h30v-60c-3.673 0-455.019 0-452 0z" fill="#ffffff" data-original="#000000" style="" class=""/><path d="m195.045 32.091h45v390h-45z" fill="#ffffff" data-original="#000000" style="" class=""/><path d="m120.045 92.091h45v330h-45z" fill="#ffffff" data-original="#000000" style="" class=""/><path d="m420.046 92.091h45v330h-45z" fill="#ffffff" data-original="#000000" style="" class=""/><path d="m270.046 152.091h45v270h-45z" fill="#ffffff" data-original="#000000" style="" class=""/><path d="m345.046 272.091h45v150h-45z" fill="#ffffff" data-original="#000000" style="" class=""/></g></g></svg>
