<?xml version="1.0"?>
<svg xmlns="http://www.w3.org/2000/svg" xmlns:xlink="http://www.w3.org/1999/xlink" xmlns:svgjs="http://svgjs.com/svgjs" version="1.1" width="512" height="512" x="0" y="0" viewBox="0 0 512 512" style="enable-background:new 0 0 512 512" xml:space="preserve" class=""><g><g xmlns="http://www.w3.org/2000/svg"><path d="m370.279 391.409h-228.558c-4.142 0-7.5 3.358-7.5 7.5s3.358 7.5 7.5 7.5h228.559c4.142 0 7.5-3.358 7.5-7.5s-3.359-7.5-7.501-7.5z" fill="#f98015" data-original="#000000" style="" class=""/><path d="m370.279 425.739h-228.558c-4.142 0-7.5 3.358-7.5 7.5s3.358 7.5 7.5 7.5h228.559c4.142 0 7.5-3.358 7.5-7.5s-3.359-7.5-7.501-7.5z" fill="#f98015" data-original="#000000" style="" class=""/><path d="m141.721 166.87c-4.142 0-7.5 3.358-7.5 7.5v180.985c0 4.142 3.358 7.5 7.5 7.5h228.559c3.979 0 7.234-3.1 7.484-7.016.047-.155.073-.316.073-.484v-154.598c0-7.598-6.182-13.779-13.78-13.779h-23.48c-7.598 0-13.779 6.181-13.779 13.779v33.311c0 4.142 3.358 7.5 7.5 7.5s7.5-3.358 7.5-7.5v-32.09h21.04v145.877h-21.04v-78.891c0-4.142-3.358-7.5-7.5-7.5s-7.5 3.358-7.5 7.5v78.891h-29.628v-90.878c0-7.598-6.182-13.779-13.78-13.779h-23.48c-7.598 0-13.78 6.181-13.78 13.779v90.878h-27.604v-38.882c0-7.598-6.182-13.78-13.78-13.78h-23.48c-7.598 0-13.78 6.182-13.78 13.78v38.882h-18.265v-173.485c0-4.142-3.358-7.5-7.5-7.5zm119.409 91.327h21.04v89.658h-21.04zm-78.645 51.996h21.04v37.662h-21.04z" fill="#f98015" data-original="#000000" style="" class=""/><path d="m191.148 70.652h129.703c12.328 0 22.358-10.03 22.358-22.358v-25.936c0-12.328-10.029-22.358-22.357-22.358h-129.704c-12.328 0-22.358 10.03-22.358 22.358v25.936c.001 12.328 10.03 22.358 22.358 22.358zm-7.357-48.294c0-4.057 3.301-7.358 7.358-7.358h129.703c4.057 0 7.358 3.301 7.358 7.358v25.936c0 4.058-3.301 7.358-7.358 7.358h-129.704c-4.057 0-7.358-3.301-7.358-7.358v-25.936z" fill="#f98015" data-original="#000000" style="" class=""/><path d="m415.551 27.826h-44.945c-4.142 0-7.5 3.358-7.5 7.5s3.358 7.5 7.5 7.5h44.945c9.645 0 17.491 7.847 17.491 17.491v419.192c0 9.645-7.847 17.491-17.491 17.491h-319.102c-9.645 0-17.491-7.847-17.491-17.491v-419.192c0-9.645 7.847-17.491 17.491-17.491h44.945c4.142 0 7.5-3.358 7.5-7.5s-3.358-7.5-7.5-7.5h-44.945c-17.916 0-32.491 14.576-32.491 32.491v419.192c0 17.916 14.576 32.491 32.491 32.491h319.102c17.916 0 32.491-14.576 32.491-32.491v-419.192c0-17.916-14.576-32.491-32.491-32.491z" fill="#f98015" data-original="#000000" style="" class=""/></g></g></svg>
